<?xml version="1.0" encoding="utf-8"?>
<!-- Generator: Adobe Illustrator 24.0.0, SVG Export Plug-In . SVG Version: 6.00 Build 0)  -->
<svg version="1.1" xmlns="http://www.w3.org/2000/svg" xmlns:xlink="http://www.w3.org/1999/xlink" x="0px" y="0px"
	 viewBox="0 0 1024 1024" style="enable-background:new 0 0 1024 1024;" xml:space="preserve">
<style type="text/css">
	.st0{display:none;}
	.st1{display:inline;fill:none;stroke:#FF0A0A;stroke-width:20;stroke-miterlimit:10;}
	.st2{display:inline;fill:none;stroke:#FF0A0A;stroke-width:100;stroke-miterlimit:10;}
	.st3{display:inline;fill:none;stroke:#231F20;stroke-linecap:round;stroke-miterlimit:10;}
	.st4{display:inline;fill:#FF0000;stroke:#FF0A0A;stroke-width:100;stroke-miterlimit:10;}
	.st5{fill:#FFFFFF;}
</style>
<g id="Layer_2" class="st0">
	<path class="st1" d="M722.1,328.8c-4.7-7.8-13.6-11.9-22-15.5c-68.9-29.5-140-59.5-214.9-59.7c-6.8,0-13.9,0.3-19.9,3.5
		c-5.7,3-9.8,8.3-13.3,13.7c-10.5,16.2-17,35-18.8,54.2"/>
	<path class="st2" d="M410.6,272.5c-7.5-4-16.4,2.1-22.3,8.2c-43.8,44.9-61.1,109.5-67.7,171.9c-3.9,36.5-4.5,74.9,10.6,108.4
		c12.4,27.5,34.3,49.5,58,68.2c57,45,127.6,74.4,200.3,75.3s146.6-28.4,193.5-83.7c34.6-40.9,53.4-94,56.2-147.5
		c2.8-53.5-9.8-107.2-32.3-155.8C770.4,239,705.8,172,624.6,142S446.1,122.8,379,177.5c-22.7,18.5-42.4,43-47.1,71.9"/>
	<path class="st2" d="M794.9,361.6c-159.5-9-324-1.3-471.3,60.6c-26.6,11.2-53.1,24.5-73.4,45s-33.9,49.5-29.8,78.2
		c6.1,42.7,47.5,70.9,87.6,86.9c59.1,23.5,124.1,32.3,187.3,25.5"/>
	<line class="st3" x1="-270.2" y1="5.3" x2="1358.4" y2="994.6"/>
	<ellipse class="st4" cx="574.4" cy="561.5" rx="857.5" ry="590.8"/>
</g>
<g id="Layer_1">
	<g id="XMLID_3_">
		<g>
			<path class="st5" d="M869.6,670.3c0.7,16.2-14.3,30-30,30c-0.3,0-0.6,0-0.9,0c-21.2,0.4-42.4,0-63.5,0c-43.5,0-87,0-130.5,0
				c-50.3,0-100.6,0-150.9,0c-41.6,0-83.1,0-124.7,0c-17.3,0-34.6,0-51.9,0c-23,0-37-25.4-25.9-45.1c2.3-4.2,4.7-8.3,7-12.5
				c16.2-28.9,32.5-57.7,48.7-86.6c8.2-14.6,26.8-18.2,41-10.8c14.5,7.6,18.5,27.3,10.8,41c-2.3,4.2-4.7,8.3-7,12.5
				c-7.8,13.8-15.5,27.6-23.3,41.4c-16.8-0.1-33.7-0.4-50.4,0.1c-0.3,0-0.6,0-0.9,0c8.6,15,17.3,30.1,25.9,45.1
				c8.4-15.1,16.9-30.1,25.4-45.2c4.4,0,8.7,0.1,13.1,0.1c43.5,0,87,0,130.5,0c50.3,0,100.6,0,150.9,0c41.6,0,83.1,0,124.7,0
				c17.3,0,34.6,0,51.9,0C856.4,640.3,868.9,654,869.6,670.3z"/>
			<path class="st5" d="M368.5,640.2c-8.5,15-17,30.1-25.4,45.2c-8.6-15-17.3-30.1-25.9-45.1c0.3,0,0.6,0,0.9,0
				C334.8,639.8,351.7,640.1,368.5,640.2z"/>
		</g>
		<g>
		</g>
	</g>
	<circle class="st0" cx="746.5" cy="824.9" r="68.1"/>
	<circle class="st0" cx="401.8" cy="824.9" r="68.1"/>
	<g id="XMLID_2_">
		<g>
			<path d="M795,818.5c0.1,0.3,0.1,0.6,0.1,0.7c0,0,0-0.1-0.1-0.4c0,0,0,0,0,0C795,818.8,795,818.7,795,818.5z"/>
			<path d="M794.8,831C794.8,831,794.8,831,794.8,831c0,0.1,0,0.1,0,0.1c-0.2,0.6-0.4,1.3-0.5,2C794.2,833,794.3,832.3,794.8,831z"
				/>
			<path d="M791.8,843.1c1.3-2.3-1.3,3.6-0.5,1.1c0-0.1,0.1-0.2,0.1-0.3C791.5,843.6,791.7,843.3,791.8,843.1z"/>
			<path d="M785.6,854.1c2.1-2.4-1.5,2.4-0.2,0.2c0,0,0,0,0,0C785.5,854.2,785.5,854.2,785.6,854.1z"/>
			<path d="M785.3,795.6C783.8,793.3,787.4,797.9,785.3,795.6C785.3,795.6,785.3,795.6,785.3,795.6z"/>
			<path d="M777.3,862.8c0.3-0.2,0.1,0-0.3,0.3C777,863,777.1,862.9,777.3,862.8C777.3,862.8,777.3,862.8,777.3,862.8z"/>
			<path d="M776.1,786.4C778.2,787.3,776.7,786.9,776.1,786.4c-0.1,0-0.1,0-0.1,0c0,0,0,0,0,0c0,0,0,0-0.1,0
				C776,786.3,776,786.4,776.1,786.4z"/>
			<path d="M776,786.4c0,0-0.1,0-0.1-0.1C775.8,786.3,775.9,786.3,776,786.4C775.9,786.3,775.9,786.3,776,786.4z"/>
			<path d="M775.5,786c0.1,0.1,0.2,0.2,0.4,0.2C774.7,785.8,775,785.8,775.5,786C775.4,786,775.4,786,775.5,786
				C775.5,786,775.5,786,775.5,786z"/>
			<path d="M765.7,869.5C769,868.3,763.5,870.7,765.7,869.5L765.7,869.5z"/>
			<path d="M764.5,779.8c0.1,0,0.7,0.3,1.2,0.6c-0.1,0-0.3-0.1-0.4-0.1c-0.1,0-0.2-0.1-0.2-0.1C764.7,779.9,764.5,779.8,764.5,779.8
				z"/>
			<path d="M754.9,872.7c2.5-0.2-4.6,0.9-1,0.1C754.3,872.8,754.6,872.7,754.9,872.7z"/>
			<path d="M753.5,777.1c-2.2-0.5,3.6,0.3,0.2,0C753.6,777.1,753.5,777.1,753.5,777.1z"/>
			<path d="M741.4,872.9c0,0-0.4,0-1.3-0.1c0,0,0,0-0.1,0c0.1,0,0.1,0,0.2,0C740.6,872.8,741,872.8,741.4,872.9
				C741.4,872.9,741.4,872.9,741.4,872.9z"/>
			<path d="M738.4,777.2c0,0,4.1-0.7,1.9-0.2c-0.3,0.1-0.5,0.1-0.8,0.2C739.1,777.2,738.8,777.2,738.4,777.2z"/>
			<path d="M729.1,869.9c-0.1,0-0.2-0.1-0.3-0.1C728.9,869.8,729,869.8,729.1,869.9z"/>
			<path d="M728.8,869.7c-0.1-0.1-0.3-0.1-0.5-0.2c-0.2-0.1-0.3-0.2-0.5-0.2c0.1,0,0.2,0.1,0.2,0.1c0,0,0.1,0,0.1,0.1
				C728.4,869.5,728.6,869.6,728.8,869.7z"/>
			<path d="M727.9,780.3c0.8-0.4,1.2-0.5,1.3-0.6c-0.1,0.1-1,0.5-1.3,0.7c-0.1,0.1-0.2,0.1-0.3,0.2c0,0,0,0,0,0
				C726.7,780.9,726.3,781.1,727.9,780.3z"/>
			<path d="M727.6,869.2c-0.1,0-0.1-0.1-0.2-0.1C727.5,869.1,727.5,869.1,727.6,869.2z"/>
			<path d="M717.6,863.2c0.5,0.5,1.2,1.1,1.4,1.1C718.5,864.3,716.2,862.4,717.6,863.2C717.6,863.2,717.6,863.2,717.6,863.2z"/>
			<path d="M717.7,786.2c0,0-0.1,0.1-0.1,0.1c-0.7,0.5-2.3,0.9-0.1,0C717.6,786.3,717.7,786.2,717.7,786.2z"/>
			<path d="M709,854.6c0.9,1.5-1.1-1-1.1-1.4C707.9,853.4,708.5,854.1,709,854.6z"/>
			<path d="M708.2,795.6C705.9,798.2,709.8,793.1,708.2,795.6L708.2,795.6z"/>
			<path d="M702.6,843.7C703.7,846.8,701.5,841.7,702.6,843.7L702.6,843.7z"/>
			<path d="M699.3,831.1c0.9,2.2,0.6,2.4,0.2,1.5c0,0,0,0,0,0C699.4,832.2,699.4,831.6,699.3,831.1z"/>
			<path d="M699.3,831.1c0,0,0-0.1-0.1-0.2c0,0,0,0,0,0C699.2,831,699.2,831.1,699.3,831.1z"/>
			<path d="M699.2,831c0,0,0-0.1-0.1-0.2C699.1,830.8,699.2,830.9,699.2,831C699.2,831,699.2,831,699.2,831z"/>
			<path class="st5" d="M765.8,780.4c0.6,0.3,1.1,0.5,1,0.4C766.8,780.8,766.3,780.6,765.8,780.4z M776.9,863.1
				c-0.6,0.5-1.6,1.1-1.6,1.1C775.6,864.2,776.3,863.7,776.9,863.1z M739.9,872.8C737.6,872.5,739.2,872.7,739.9,872.8L739.9,872.8z
				 M727.6,869.2c-0.1,0-0.1-0.1-0.2-0.1C727.5,869.1,727.5,869.1,727.6,869.2z M729.1,869.9c-0.1,0-0.2-0.1-0.3-0.1
				C728.9,869.8,729,869.9,729.1,869.9z M717.5,786.3C715.3,787.2,716.9,786.8,717.5,786.3c0.2,0,0.2-0.1,0.2-0.1
				c2.2-0.9-0.6,0.4-1.2,1c-0.5,0.4-1,0.9-1.5,1.3c-1.1,1-2.2,2.1-3.3,3.2c-1.1,1.1-2.1,2.3-3.1,3.4c-0.2,0.2-0.3,0.4-0.4,0.5
				c1.6-2.5-2.3,2.6,0,0c0,0,0,0.1-0.1,0.1c-1.8,2.8-3.6,5.5-5.1,8.5c-0.3,0.8-0.7,1.6-1.1,2.4c-0.2,0.4-0.3,0.5-0.3,0.6
				c0,0,0,0,0,0c0.1-0.3,1.2-2.3,1-2.3c-0.4,0.1-0.7,1.2-1,2.3c0,0,0,0,0,0c-0.2,0.9-0.4,1.8-0.6,2.1c-0.3,0.8-3.1,9.4-2.4,9.8
				c0.1,0.1,0.2-1.8,0.3-2.5c0,0.2,0,0.6-0.1,1.3c-0.1,0.7-0.2,1.4-0.2,2.1c0,0.5-0.1,0.9-0.1,1.4c-1.8-9.1-10-16.9-19.6-16.4
				c-10.8,0.3-19.9,8.1-20.5,18.7c1-40.1,29.7-77.2,69.8-85c36.7-7.2,74.3,8.5,93.9,40.7c19.9,32.6,15.1,73.9-8.8,102.9
				c-22.5,27.2-63.1,38-96.1,25.6c-34.5-13-57.9-44.9-58.8-81.9c0.5,10.1,9.7,19.4,20,18.9c10.9-0.5,19.9-8.8,20-20
				c0-1.1,0-2.3,0.1-3.5c0.2,1.2,0.4,2.4,0.4,3.6c0,2,0.1,4,0.3,5.9c0,0,0-0.1-0.1-0.1c0,0.1,0.1,0.1,0.1,0.2c0,0.1,0,0.2,0,0.3
				c0,0.6,0.2,1,0.3,1.4c0,0,0,0,0,0c0,0,0,0.1,0,0.1c0.7,3.6,1.7,7,2.9,10.4c0.1,0.2,0.1,0.3,0.2,0.5c-1.1-2,1.1,3.2,0,0
				c0.1,0.2,0.3,0.5,0.4,0.8c0.9,1.7,1.8,3.5,2.8,5.2c0.9,1.5,1.9,2.9,2.9,4.4c0.1,0.2,0.2,0.4,0.3,0.5c-0.5-0.5-1.1-1.2-1.1-1.4
				c0,0.4,2,2.9,1.1,1.4c0.3,0.3,0.6,0.6,0.6,0.6c2.3,2.7,4.8,5.1,7.4,7.4c0.1,0.1,0.3,0.3,0.6,0.6c-1.4-0.8,0.9,1.1,1.4,1.1
				c-0.3,0-0.9-0.6-1.4-1.1c0.1,0.1,0.3,0.2,0.5,0.3c1.5,1,2.9,2,4.4,2.9c1.5,0.9,3,1.7,4.6,2.5c0.2,0.1,0.5,0.3,0.9,0.4
				c-0.1,0-0.1-0.1-0.2-0.1c0.1,0.1,0.3,0.1,0.5,0.2c0.2,0.1,0.4,0.2,0.5,0.2c-0.2-0.1-0.4-0.2-0.7-0.3c0.1,0,0.2,0.1,0.3,0.1
				c3.4,1.2,6.8,2.3,10.3,3c0.5,0.1,2.4,0.3,2.7,0.4c-0.4,0-0.8-0.1-1.2-0.1c0,0-0.1,0-0.2,0c0,0,0,0,0.1,0c0.9,0.1,1.3,0.1,1.3,0.1
				c1.3,0.1,2.5,0.2,3.7,0.2c3,0.1,5.9-0.1,8.8-0.3c-3.6,0.8,3.5-0.3,1-0.1c-0.3,0-0.6,0.1-1,0.1c0.1,0,0.2-0.1,0.4-0.1
				c0.7-0.1,1.3-0.3,2-0.4c1.6-0.4,3.1-0.8,4.6-1.2c1.5-0.5,2.9-1,4.4-1.5c0.2,0,0.3-0.1,0.4-0.1c-2.2,1.2,3.3-1.1,0,0
				c0.1-0.1,0.2-0.1,0.3-0.2c2.9-1.5,5.8-3,8.6-4.8c0.5-0.4,1-0.7,1.6-1.1c0.5-0.3,0.8-0.5,1-0.6c-0.1,0.1-0.2,0.2-0.3,0.3
				c0.4-0.3,0.7-0.5,0.3-0.3c0.7-0.7,1.4-1.4,1.5-1.6c2.4-2.1,4.5-4.5,6.6-6.9c-1.3,2.2,2.3-2.6,0.2-0.2c0,0.1-0.1,0.1-0.2,0.2
				c0.1-0.2,0.3-0.5,0.6-0.9c0.9-1.3,1.7-2.6,2.5-3.9c0.9-1.5,1.7-3,2.5-4.6c0.1-0.3,0.2-0.7,0.4-1c0,0.1-0.1,0.2-0.1,0.3
				c-0.8,2.5,1.8-3.4,0.5-1.1c-0.1,0.2-0.3,0.5-0.4,0.8c0.8-2.7,1.8-5.3,2.5-8c0.2-0.8,0.3-1.9,0.5-2.8c0.1,0.1,0.4-0.3,0.4-1.3
				c0-0.3,0-0.5,0-0.7c0,0,0,0,0,0c0-0.2,0.1-0.3,0.2-0.5c-0.1,0.1-0.1,0.3-0.2,0.4c0-0.7,0.1-1.3,0.2-2c0.2-3,0.2-6.1,0-9.1
				c0-0.2,0-0.6,0-1c0,0.2,0.1,0.3,0.1,0.4c0-0.1,0-0.3-0.1-0.7c0-0.8,0-1.8-0.3-2c0,0,0.2,1.3,0.3,2c0,0.1,0,0.2,0,0.3
				c-0.1-0.2-0.1-0.6-0.2-1c-0.3-1.3-0.6-2.7-0.9-4c-0.4-1.3-1.7-8.3-2.8-8.9c0.5,0.5,1.9,3.9,0,0.5c-0.3-0.6-0.6-1.2-0.9-1.8
				c-0.7-1.3-1.5-2.7-2.3-4c-0.8-1.3-1.7-2.5-2.5-3.8c0-0.1-0.1-0.1-0.1-0.2c2.1,2.3-1.5-2.3,0,0c-0.1-0.1-0.2-0.3-0.4-0.4
				c-2.2-2.4-4.3-4.8-6.8-7c-0.7-0.6-1.3-1.1-2-1.7c0,0-0.1-0.1-0.1-0.1c0.7,0.5,2.2,0.9,0.1,0c-0.1,0-0.1-0.1-0.2-0.1
				c-0.1-0.1-0.3-0.2-0.4-0.3c0,0,0,0,0,0c0,0,0,0,0,0c-0.6-0.4-1.1-0.7-1.6-1.1c-2.7-1.8-5.7-3-8.5-4.7c0.1,0.1,0.3,0.1,0.4,0.1
				c-0.5-0.3-1.1-0.6-1.2-0.6c0,0,0.2,0.1,0.6,0.3c0.1,0.1,0.2,0.1,0.2,0.1c-0.5-0.1-0.9-0.3-1-0.3c-1.5-0.5-3-1-4.5-1.4
				c-1.8-0.4-3.5-0.9-5.3-1.2c-0.5-0.1-0.8-0.2-1-0.2c0.1,0,0.2,0,0.2,0c3.3,0.3-2.4-0.5-0.2,0c-3.2-0.3-6.3-0.4-9.6-0.3
				c-1.5,0-3,0.3-4.4,0.4c0.3,0,0.6-0.1,0.8-0.2c2.2-0.5-1.9,0.2-1.9,0.2c0.3,0,0.7,0,1.1,0c-0.6,0.1-1.3,0.2-1.9,0.3
				c-2.8,0.6-5.7,1.4-8.4,2.4c-0.1,0-1,0.4-1.6,0.7c0.1,0,0.2-0.1,0.3-0.2c0.3-0.2,1.1-0.6,1.3-0.7c-0.1,0-0.4,0.2-1.3,0.6
				c-1.6,0.8-1.2,0.6-0.4,0.3c-1.5,0.7-3,1.4-4.3,2.2c-1.2,0.6-2.3,1.3-3.4,2c-0.8,0.5-1.4,0.9-2.1,1.4
				C717.7,786.2,717.6,786.3,717.5,786.3z"/>
			<path class="st5" d="M698.5,821.4c-0.1,1.2-0.1,2.4-0.1,3.5c-0.1,11.2-9.1,19.5-20,20c-10.3,0.5-19.4-8.8-20-18.9
				c0-0.3,0-0.6,0-1c0-0.1,0-0.1,0-0.2s0-0.1,0-0.2c0-0.3,0-0.7,0-1c0.6-10.6,9.7-18.4,20.5-18.7
				C688.5,804.6,696.7,812.3,698.5,821.4z"/>
			<path d="M450.3,818.5c0.1,0.3,0.1,0.6,0.1,0.7c0,0,0-0.1-0.1-0.4c0,0,0,0,0,0C450.3,818.8,450.3,818.7,450.3,818.5z"/>
			<path d="M450.1,831C450.1,831,450.1,831,450.1,831c0,0.1,0,0.1,0,0.1c-0.2,0.6-0.4,1.3-0.5,2C449.5,833,449.5,832.3,450.1,831z"
				/>
			<path d="M447.1,843.1c1.3-2.3-1.3,3.6-0.5,1.1c0-0.1,0.1-0.2,0.1-0.3C446.8,843.6,447,843.3,447.1,843.1z"/>
			<path d="M440.9,854.1c2.1-2.4-1.5,2.4-0.2,0.2c0,0,0,0,0,0C440.8,854.2,440.9,854.2,440.9,854.1z"/>
			<path d="M440.6,795.6C439.1,793.3,442.7,797.9,440.6,795.6C440.6,795.6,440.6,795.6,440.6,795.6z"/>
			<path d="M432.5,862.8c0.3-0.2,0.1,0-0.3,0.3C432.3,863,432.4,862.9,432.5,862.8C432.5,862.8,432.5,862.8,432.5,862.8z"/>
			<path d="M431.4,786.4c2.1,0.9,0.6,0.5-0.1,0c0,0,0,0,0,0c0,0,0,0,0,0c0,0,0,0-0.1,0C431.3,786.3,431.3,786.4,431.4,786.4z"/>
			<path d="M431.3,786.4c0,0-0.1,0-0.1-0.1C431.1,786.3,431.2,786.3,431.3,786.4C431.2,786.3,431.2,786.3,431.3,786.4z"/>
			<path d="M430.8,786c0.1,0.1,0.2,0.2,0.4,0.2C430,785.8,430.3,785.8,430.8,786C430.7,786,430.7,786,430.8,786
				C430.8,786,430.8,786,430.8,786z"/>
			<path d="M421,869.5C424.3,868.3,418.8,870.7,421,869.5L421,869.5z"/>
			<path d="M420.4,780.1c-0.4-0.2-0.5-0.3-0.6-0.3c0.1,0,0.7,0.3,1.2,0.6c-0.1,0-0.3-0.1-0.4-0.1
				C420.5,780.2,420.5,780.2,420.4,780.1z"/>
			<path d="M410.2,872.7c2.5-0.2-4.6,0.9-1,0.1C409.6,872.8,409.9,872.7,410.2,872.7z"/>
			<path d="M408.8,777.1c-2.2-0.5,3.6,0.3,0.2,0C408.9,777.1,408.8,777.1,408.8,777.1z"/>
			<path class="st5" d="M401.9,563.4c5.2,16-6.2,32.1-21,36.9c-15.9,5.1-32-6.1-36.9-21c-0.1-0.3-0.2-0.5-0.3-0.8
				c-6.1-17.7-11.7-35.6-17.6-53.4c-12-36.7-24.1-73.4-36.2-110.1c-13.9-42.3-27.9-84.6-41.8-126.8c-11.6-35.1-23.1-70.2-34.7-105.3
				c-2.4-7.3-4.8-14.6-7.2-21.9c0.3,0,0.7,0,1,0c6.9,0,13.8,0,20.7,0c-9.6-7.3-19.3-14.7-28.9-22c2.4,7.3,4.8,14.7,7.2,22
				c-47.7,0-95.3,0-143,0c-16.8,0-29.3-13.7-29.9-30c-0.7-16.2,14.3-30,30-30c6.9,0,13.8,0,20.7,0c48,0,96,0,144,0
				c13.6,0,24.7,9.4,28.9,22c0.1,0.3,0.2,0.5,0.3,0.8c6.2,17.7,11.7,35.6,17.6,53.4c12,36.7,24.1,73.4,36.2,110.1
				c14,42.3,27.9,84.6,41.8,126.9c11.6,35.1,23.1,70.2,34.7,105.3C392.3,534.2,397.1,548.8,401.9,563.4z"/>
			<path d="M396.7,872.9c0,0-0.4,0-1.3-0.1c0,0,0,0-0.1,0c0.1,0,0.1,0,0.2,0C395.9,872.8,396.3,872.8,396.7,872.9
				C396.7,872.9,396.7,872.9,396.7,872.9z"/>
			<path d="M393.7,777.2c0,0,4.1-0.7,1.9-0.2c-0.3,0.1-0.6,0.1-0.8,0.2C394.4,777.2,394,777.2,393.7,777.2z"/>
			<path d="M384.4,869.9c-0.1,0-0.2-0.1-0.3-0.1C384.2,869.8,384.3,869.8,384.4,869.9z"/>
			<path d="M384.1,869.7c-0.1-0.1-0.3-0.1-0.5-0.2c-0.2-0.1-0.4-0.2-0.5-0.2c0.1,0,0.2,0.1,0.2,0.1c0,0,0.1,0,0.1,0.1
				C383.7,869.5,383.9,869.6,384.1,869.7z"/>
			<path d="M383.2,780.3c0.8-0.4,1.2-0.5,1.3-0.6c-0.1,0.1-1,0.5-1.3,0.7c-0.1,0.1-0.2,0.1-0.3,0.2c0,0,0,0,0,0
				C382,780.9,381.6,781.1,383.2,780.3z"/>
			<path d="M382.9,869.2c-0.1,0-0.1-0.1-0.2-0.1C382.8,869.1,382.8,869.1,382.9,869.2z"/>
			<path d="M372.9,863.2c0.5,0.5,1.2,1.1,1.4,1.1C373.8,864.3,371.5,862.4,372.9,863.2C372.9,863.2,372.9,863.2,372.9,863.2z"/>
			<path d="M373,786.2c-0.1,0-0.1,0.1-0.1,0.1c-0.7,0.5-2.3,0.9-0.1,0C372.9,786.3,373,786.2,373,786.2z"/>
			<path d="M364.3,854.6c0.9,1.5-1.1-1-1.1-1.4C363.2,853.4,363.8,854.1,364.3,854.6z"/>
			<path d="M363.5,795.6C361.2,798.2,365.1,793.1,363.5,795.6L363.5,795.6z"/>
			<path d="M357.9,843.7C359,846.8,356.8,841.7,357.9,843.7L357.9,843.7z"/>
			<path d="M354.5,831.1c0.9,2.2,0.6,2.4,0.2,1.5c0,0,0,0,0,0C354.7,832.2,354.7,831.6,354.5,831.1z"/>
			<path d="M354.5,831.1c0,0,0-0.1-0.1-0.2c0,0,0,0,0,0C354.5,831,354.5,831.1,354.5,831.1z"/>
			<path d="M354.5,831c0,0,0-0.1-0.1-0.2C354.4,830.8,354.5,830.9,354.5,831C354.5,831,354.5,831,354.5,831z"/>
			<path class="st5" d="M432.2,863.1c-0.6,0.5-1.6,1.1-1.6,1.1C430.9,864.2,431.6,863.7,432.2,863.1z M382.9,869.2
				c-0.1,0-0.1-0.1-0.2-0.1C382.8,869.1,382.8,869.1,382.9,869.2z M395.2,872.8C392.9,872.5,394.5,872.7,395.2,872.8L395.2,872.8z
				 M421.1,780.4c0.6,0.3,1.1,0.5,1,0.4C422,780.8,421.6,780.6,421.1,780.4z M384.4,869.9c-0.1,0-0.2-0.1-0.3-0.1
				C384.2,869.8,384.3,869.9,384.4,869.9z M372.8,786.3c-2.2,0.9-0.6,0.5,0.1,0c0.1,0,0.1-0.1,0.1-0.1c2.2-0.9-0.6,0.4-1.2,1
				c-0.5,0.4-1,0.9-1.5,1.3c-1.1,1-2.2,2.1-3.3,3.2c-1.1,1.1-2.1,2.3-3.1,3.4c-0.2,0.2-0.3,0.4-0.4,0.5c1.6-2.5-2.3,2.6,0,0
				c0,0,0,0.1-0.1,0.1c-1.8,2.8-3.6,5.5-5.1,8.5c-0.3,0.8-0.7,1.6-1.1,2.4c-0.2,0.4-0.3,0.5-0.3,0.6c0,0,0,0,0,0
				c0.1-0.3,1.2-2.3,1-2.3c-0.4,0.1-0.7,1.2-1,2.3c0,0,0,0,0,0c-0.2,0.9-0.4,1.8-0.6,2.1c-0.3,0.8-3.1,9.4-2.4,9.8
				c0.1,0.1,0.2-1.8,0.3-2.5c0,0.2,0,0.6-0.1,1.3c-0.1,0.7-0.2,1.4-0.2,2.1c0,0.5-0.1,0.9-0.1,1.4c-1.8-9.1-10-16.9-19.6-16.4
				c-10.8,0.3-19.9,8-20.5,18.5c1-40.1,29.6-77,69.8-84.8c36.7-7.2,74.3,8.5,93.9,40.7c19.9,32.6,15.1,73.9-8.8,102.9
				c-22.5,27.2-63.1,38-96.1,25.6c-34.5-13-57.9-44.9-58.8-81.9c0.5,10.1,9.6,19.4,20,18.9c10.9-0.5,19.9-8.8,20-20
				c0-1.1,0-2.3,0.1-3.5c0.2,1.2,0.4,2.4,0.4,3.6c0,2,0.1,4,0.3,5.9c0,0,0-0.1-0.1-0.1c0,0.1,0.1,0.1,0.1,0.2c0,0.1,0,0.2,0,0.3
				c0,0.6,0.2,1,0.3,1.4c0,0,0,0,0,0c0,0,0,0.1,0,0.1c0.7,3.6,1.7,7,2.9,10.4c0.1,0.2,0.1,0.3,0.2,0.5c-1.1-2,1.1,3.2,0,0
				c0.1,0.2,0.3,0.5,0.4,0.8c0.9,1.7,1.8,3.5,2.8,5.2c0.9,1.5,1.9,2.9,2.9,4.4c0.1,0.2,0.2,0.4,0.3,0.5c-0.5-0.5-1.1-1.2-1.1-1.4
				c0,0.4,2,2.9,1.1,1.4c0.3,0.3,0.6,0.6,0.6,0.6c2.3,2.7,4.8,5.1,7.4,7.4c0.1,0.1,0.3,0.3,0.6,0.6c-1.4-0.8,0.9,1.1,1.4,1.1
				c-0.3,0-0.9-0.6-1.4-1.1c0.1,0.1,0.3,0.2,0.5,0.3c1.5,1,2.9,2,4.4,2.9c1.5,0.9,3,1.7,4.6,2.5c0.2,0.1,0.5,0.3,0.9,0.4
				c-0.1,0-0.1-0.1-0.2-0.1c0.1,0.1,0.3,0.1,0.5,0.2c0.2,0.1,0.4,0.2,0.5,0.2c-0.2-0.1-0.4-0.2-0.7-0.3c0.1,0,0.2,0.1,0.3,0.1
				c3.4,1.2,6.8,2.3,10.3,3c0.5,0.1,2.4,0.3,2.7,0.4c-0.4,0-0.8-0.1-1.2-0.1c0,0-0.1,0-0.2,0c0,0,0.1,0,0.1,0
				c0.9,0.1,1.3,0.1,1.3,0.1c1.3,0.1,2.5,0.2,3.7,0.2c3,0.1,5.9-0.1,8.8-0.3c-3.6,0.8,3.5-0.3,1-0.1c-0.3,0-0.6,0.1-1,0.1
				c0.1,0,0.2-0.1,0.4-0.1c0.7-0.1,1.3-0.3,2-0.4c1.6-0.4,3.1-0.8,4.6-1.2c1.5-0.5,2.9-1,4.4-1.5c0.1,0,0.3-0.1,0.4-0.1
				c-2.2,1.2,3.3-1.1,0,0c0.1-0.1,0.2-0.1,0.3-0.2c2.9-1.5,5.8-3,8.6-4.8c0.5-0.4,1-0.7,1.6-1.1c0.5-0.3,0.9-0.5,1-0.6
				c-0.1,0.1-0.2,0.2-0.3,0.3c0.4-0.3,0.7-0.5,0.3-0.3c0.7-0.7,1.4-1.4,1.6-1.6c2.4-2.1,4.5-4.5,6.6-6.9c-1.3,2.2,2.3-2.6,0.2-0.2
				c0,0.1-0.1,0.1-0.2,0.2c0.1-0.2,0.3-0.5,0.6-0.9c0.9-1.3,1.7-2.6,2.5-3.9c0.9-1.5,1.7-3,2.5-4.6c0.1-0.3,0.2-0.7,0.4-1
				c0,0.1-0.1,0.2-0.1,0.3c-0.8,2.5,1.8-3.4,0.5-1.1c-0.1,0.2-0.3,0.5-0.4,0.8c0.8-2.7,1.8-5.3,2.5-8c0.2-0.8,0.3-1.9,0.5-2.8
				c0.1,0.1,0.4-0.3,0.4-1.3c0-0.3,0-0.5,0-0.7c0,0,0,0,0,0c0.1-0.2,0.1-0.3,0.2-0.5c-0.1,0.1-0.1,0.3-0.2,0.4c0-0.7,0.1-1.3,0.2-2
				c0.2-3,0.2-6.1,0-9.1c0-0.2,0-0.6,0-1c0.1,0.2,0.1,0.3,0.1,0.4c0-0.1,0-0.3-0.1-0.7c0-0.8,0-1.8-0.3-2c0,0,0.2,1.3,0.3,2
				c0,0.1,0,0.2,0,0.3c0-0.2-0.1-0.6-0.2-1c-0.3-1.3-0.6-2.7-0.9-4c-0.4-1.3-1.7-8.3-2.8-8.9c0.6,0.5,1.9,3.9,0,0.5
				c-0.3-0.6-0.6-1.2-0.9-1.8c-0.7-1.3-1.5-2.7-2.3-4c-0.8-1.3-1.7-2.5-2.5-3.8c0-0.1-0.1-0.1-0.1-0.2c2.1,2.3-1.5-2.3,0,0
				c-0.1-0.1-0.2-0.3-0.4-0.4c-2.2-2.4-4.3-4.8-6.8-7c-0.7-0.6-1.3-1.1-2-1.7c0,0-0.1-0.1-0.1-0.1c0.7,0.5,2.2,0.9,0.1,0
				c-0.1,0-0.1-0.1-0.2-0.1c-0.1-0.1-0.3-0.2-0.4-0.3c0,0,0,0,0,0c0,0,0,0,0,0c-0.6-0.4-1.1-0.7-1.6-1.1c-2.7-1.8-5.7-3-8.5-4.7
				c0.1,0.1,0.3,0.1,0.4,0.1c-0.5-0.3-1.1-0.6-1.2-0.6c0,0,0.2,0.1,0.6,0.3c0.1,0.1,0.1,0.1,0.2,0.1c-0.5-0.1-0.9-0.3-1-0.3
				c-1.5-0.5-3-1-4.5-1.4c-1.8-0.4-3.5-0.9-5.3-1.2c-0.5-0.1-0.8-0.2-1-0.2c0.1,0,0.2,0,0.2,0c3.3,0.3-2.4-0.5-0.2,0
				c-3.2-0.3-6.3-0.4-9.6-0.3c-1.5,0-3,0.3-4.4,0.4c0.3,0,0.6-0.1,0.8-0.2c2.2-0.5-1.9,0.2-1.9,0.2c0.3,0,0.7,0,1.1,0
				c-0.6,0.1-1.3,0.2-1.9,0.3c-2.8,0.6-5.7,1.4-8.4,2.4c-0.1,0-1,0.4-1.6,0.7c0.1,0,0.2-0.1,0.3-0.2c0.3-0.2,1.1-0.6,1.3-0.7
				c-0.1,0-0.4,0.2-1.3,0.6c-1.6,0.8-1.2,0.6-0.4,0.3c-1.5,0.7-3,1.4-4.4,2.2c-1.2,0.6-2.3,1.3-3.4,2c-0.8,0.5-1.4,0.9-2.1,1.4
				C373,786.2,372.9,786.3,372.8,786.3z"/>
			<path class="st5" d="M353.8,821.4c-0.1,1.2-0.1,2.4-0.1,3.5c-0.1,11.2-9.1,19.5-20,20c-10.3,0.5-19.4-8.8-20-18.9
				c0-0.3,0-0.6,0-1c0-0.1,0-0.1,0-0.2c0-0.4,0-0.8,0-1.2c0,0,0-0.1,0-0.1c0.5-10.5,9.6-18.2,20.5-18.5
				C343.9,804.6,352,812.3,353.8,821.4z"/>
			<path d="M313.7,824.9c0-0.4,0-0.8,0-1.2C313.7,824.1,313.7,824.5,313.7,824.9z"/>
			<path class="st5" d="M227.9,161c-6.9,0-13.8,0-20.7,0c-0.3,0-0.6,0-1,0c-2.4-7.3-4.8-14.7-7.2-22
				C208.6,146.3,218.3,153.7,227.9,161z"/>
		</g>
		<g>
		</g>
	</g>
	<g>
		<g id="XMLID_1_">
			<g>
				<path d="M980.7,261c0.2-1.1,0.2-2.1,0.2-3.3c-0.2-5-2.2-9.7-5.3-13.3C979.7,248.9,982,255.3,980.7,261z"/>
				<path class="st5" d="M980.9,257.7c0,1.1,0,2.2-0.2,3.3c-0.1,0.7-0.4,1.4-0.6,2.1c-0.6,1.4-1.1,2.9-1.7,4.3
					c-3.5,6.1-10.4,10.3-17.5,10.3c-0.4,0-0.8,0-1.2,0c-2.2,0-4.4,0.1-6.6,0.1l7.7-19.8h-21.4c0.7-1.8,1.4-3.7,2.1-5.5
					c4-10.5,13.1-16.6,24.6-14c1.5,0.3,3,0.9,4.4,1.7c0.2,0.1,0.5,0.3,0.7,0.4c0,0,0,0,0,0c0.4,0.3,0.9,0.6,1.3,0.9
					c0.2,0.2,0.4,0.3,0.6,0.5c0.2,0.2,0.4,0.4,0.6,0.5c0.4,0.4,0.8,0.7,1.2,1.1c0.2,0.2,0.4,0.4,0.6,0.6c0,0,0,0,0.1,0.1
					C978.7,248,980.7,252.7,980.9,257.7z"/>
				<path d="M980.1,263.1c0.3-0.7,0.5-1.4,0.6-2.1c-0.3,2.3-1.1,4.5-2.3,6.5C979,266,979.5,264.5,980.1,263.1z"/>
				<path d="M973.8,242.6c0.4,0.4,0.8,0.7,1.2,1.1C974.6,243.3,974.2,242.9,973.8,242.6z"/>
				<path d="M973.8,242.6c-0.2-0.2-0.4-0.4-0.6-0.5C973.4,242.2,973.6,242.4,973.8,242.6z"/>
				<path d="M973.2,242.1c-0.2-0.2-0.4-0.3-0.6-0.5C972.7,241.7,973,241.9,973.2,242.1z"/>
				<path d="M971.2,240.6c0.5,0.3,0.9,0.6,1.3,0.9C972.1,241.2,971.7,240.9,971.2,240.6z"/>
				<path class="st5" d="M978.4,267.4c-4.4,11.5-8.9,23-13.3,34.5c-21.7,56.3-43.5,112.5-65.3,168.8c-13.7,35.3-27.3,70.6-41,105.9
					c-3.2,8.3-9.8,14.7-19.3,14.7c-0.3,0-0.5,0-0.8,0c-18.9,0.7-37.9,0-56.7,0c-38.8,0-77.6,0-116.4,0c-44.9,0-89.8,0-134.7,0
					c-37.1,0-74.3,0-111.4,0c-15.5,0-31.1,0-46.6,0c-9.1,0-16.5-6.3-19.3-14.7c-4.3-13-8.5-25.9-12.8-38.8
					c-18.4-56.2-36.9-112.3-55.4-168.4c-11.7-35.5-23.3-70.9-35-106.4c-4.1-12.4,6.8-25.3,19.3-25.3c0.4,0,0.8,0,1.2,0
					c8.9-0.2,17.9,0,26.9,0c18.9,0,37.8,0,56.7,0c26.5,0,52.9,0,79.3,0c31.1,0,62.2,0,93.3,0c33.5,0,67.1,0,100.6,0
					c33.1,0,66.1,0,99.2,0c30.4,0,60.7,0,91,0c24.8,0,49.5,0,74.2,0c16.8,0,33.6,0,50.4,0c6.1,0,12.3,0,18.4,0
					c3.5,0,6.8,0.9,9.6,2.5c-1.4-0.8-2.9-1.4-4.4-1.7c-11.5-2.6-20.6,3.5-24.6,14c-0.7,1.8-1.4,3.7-2.1,5.5H290.9
					c-0.6-1.9-1.2-3.7-1.9-5.6c-1.4,1.9-2.8,3.7-4.3,5.6h-15l4.5,13.8c-1.5,2-3,4-4.5,6c2.2,0,4.3,0,6.5,0L372.9,571h466.5
					l113.7-293.2c2.2,0,4.4,0,6.6-0.1c0.4,0,0.8,0,1.2,0C968,277.7,974.9,273.5,978.4,267.4z"/>
				<path class="st5" d="M960.8,258l-7.7,19.8c-6.8,0-13.5-0.1-20.3-0.1c-0.3,0-0.7,0-1.1,0c2.5-6.6,5.1-13.1,7.6-19.7H960.8z"/>
				<path class="st5" d="M953.1,277.8L839.4,571H372.9l-96.7-293.3c4,0,8,0,11.9,0c3.1,0,6.1,0,9.2,0c1.5,4.5,3,9,4.5,13.5
					c18.4,56.2,36.9,112.3,55.4,168.4c10,30.5,20,60.9,30,91.4c-4.5,0-9,0.1-13.5,0.3c-0.3,0-0.5,0-0.8,0
					c6.4,4.9,12.9,9.8,19.3,14.7c-1.7-5-3.3-10-5-15c14.4-0.1,28.8,0.3,43.1,0.3c38.8,0,77.6,0,116.4,0c44.9,0,89.8,0,134.7,0
					c37.1,0,74.3,0,111.4,0c11,0,22,0,33,0c-1.9,4.9-3.8,9.8-5.7,14.7c6.4-4.9,12.9-9.8,19.3-14.7c-4.5,0-9.1,0-13.6,0
					c3.1-8,6.2-16.1,9.3-24.1c21.7-56.3,43.5-112.5,65.3-168.8c10.4-26.9,20.8-53.8,31.2-80.7c0.4,0,0.7,0,1.1,0
					C939.6,277.7,946.4,277.8,953.1,277.8z"/>
				<path class="st5" d="M939.4,258c-2.5,6.6-5.1,13.1-7.6,19.7c-18.5,0-37.1,0-55.6,0c-26.5,0-52.9,0-79.3,0c-31.1,0-62.2,0-93.3,0
					c-33.5,0-67.1,0-100.6,0c-33.1,0-66.1,0-99.2,0c-30.4,0-60.7,0-91,0c-24.8,0-49.5,0-74.2,0c-13.7,0-27.5,0-41.2,0
					c-2.2-6.6-4.3-13.1-6.5-19.7H939.4z"/>
				<path class="st5" d="M825.9,551.3c4.5,0,9.1,0,13.6,0c-6.4,4.9-12.9,9.8-19.3,14.7C822.1,561.1,824,556.2,825.9,551.3z"/>
				<path class="st5" d="M387.3,551c1.6,5,3.3,10,5,15c-6.4-4.9-12.9-9.8-19.3-14.7c0.3,0,0.5,0,0.8,0
					C378.2,551.1,382.7,551,387.3,551z"/>
				<path class="st5" d="M297.3,277.7c-3.1,0-6.1,0-9.2,0c-3.9,0-7.9,0-11.9,0l-2-6c3.5-4.6,7-9.2,10.5-13.8h6.1
					C293,264.6,295.2,271.1,297.3,277.7z"/>
				<path class="st5" d="M289,252.4c0.6,1.9,1.2,3.7,1.9,5.6h-6.1C286.2,256.1,287.6,254.3,289,252.4z"/>
				<path class="st5" d="M269.7,258h15c-3.5,4.6-7,9.2-10.5,13.8L269.7,258z"/>
				<path class="st5" d="M276.2,277.7c-2.2,0-4.3,0-6.5,0c1.5-2,3-4,4.5-6L276.2,277.7z"/>
			</g>
			<g>
			</g>
		</g>
	</g>
</g>
</svg>
