<?xml version="1.0" encoding="utf-8"?>
<!-- Generator: Adobe Illustrator 24.0.0, SVG Export Plug-In . SVG Version: 6.00 Build 0)  -->
<svg version="1.1" id="Layer_1" xmlns="http://www.w3.org/2000/svg" xmlns:xlink="http://www.w3.org/1999/xlink" x="0px" y="0px"
	 viewBox="0 0 128 128" style="enable-background:new 0 0 128 128;" xml:space="preserve">
<style type="text/css">
	.st0{fill:#FFFFFF;}
	.st1{fill:#FF0006;}
	.st2{font-family:'UTM-American-Sans';}
	.st3{font-size:30.8762px;}
	.st4{fill:#FF5B00;}
	.st5{fill:#FDFDFF;}
</style>
<g id="Layer_1_1_">
</g>
<g id="refrigerator">
</g>
<g id="washer">
</g>
<g id="tv">
</g>
<g id="microwawe">
</g>
<g id="vacuum_cleaner">
</g>
<g id="Gift">
</g>
<g id="umbrella">
</g>
<g id="rocket">
</g>
<g id="basket">
</g>
<g id="shopping">
</g>
<g id="email">
</g>
<g id="message">
</g>
<g id="delivery">
</g>
<g id="store">
</g>
<g id="label">
</g>
<g id="phone">
</g>
<g id="imac">
</g>
<g id="laptop">
</g>
<g id="heart_like">
</g>
<g id="game">
</g>
<g id="wallet">
</g>
<g id="camera">
</g>
<g id="battery">
</g>
<g id="shoes">
</g>
<g id="t-shirt">
</g>
<g id="pencil">
</g>
<g id="people">
</g>
<g id="statistics">
</g>
<g id="blog">
</g>
<g id="rock">
</g>
<g id="like">
</g>
<g id="dislike">
</g>
<g id="speaker">
</g>
<g id="pc">
</g>
<g id="glasses">
</g>
<g id="headphones">
</g>
<g id="player">
</g>
<g id="book">
</g>
<g id="transfer">
</g>
<g id="mouse">
</g>
<g>
	<g>
		<g id="XMLID_1_">
			<g>
				<path class="st0" d="M125.7,78.9c1.5,2.4,1.8,5.2,0.8,7.8c-0.9,2.6-3,4.7-5.6,5.8l-82.6,34.6c-2.7,1.1-5.8,1.2-8.6,0.1
					c-2.8-1-5-3.1-6.1-5.6L-0.2,66.4c-2.1-4.8,0.3-10.3,5.4-12.4l4.3-1.8c0.4,1.3,0.8,2.5,1.3,3.8L7,57.5C4,58.8,2.5,62.1,3.8,65
					l23.9,55.3c0.7,1.5,2,2.7,3.6,3.4c1.7,0.6,3.5,0.6,5.1-0.1L119,88.9c1.6-0.7,2.8-1.9,3.4-3.5c0.5-1.6,0.4-3.2-0.5-4.7L90.4,28.7
					C88.7,26,85,24.9,82,26.1l-3.7,1.5c-0.8-1.1-1.6-2.3-2.4-3.3l4.3-1.8c5.1-2.1,11.3-0.3,14,4.3L125.7,78.9z"/>
				<path class="st0" d="M121.9,80.8c0.9,1.5,1.1,3.1,0.5,4.7c-0.6,1.6-1.8,2.8-3.4,3.5l-82.6,34.6c-1.6,0.7-3.5,0.7-5.1,0.1
					c-1.7-0.6-3-1.8-3.6-3.4L3.8,65C2.5,62.1,4,58.8,7,57.5l3.7-1.5c0.6,1.7,1.4,3.4,2.3,5l2.1,4c0.5,1,1.8,1.4,2.9,1
					c1.1-0.4,1.5-1.6,1-2.6l-2.1-4c-0.9-1.7-1.6-3.4-2.2-5.1l59.7-25c1,1.5,2,3.1,2.9,4.8l2.1,4c0.5,1,1.8,1.4,2.9,1
					c1.1-0.4,1.5-1.6,1-2.6l-2.1-4c-0.9-1.7-1.8-3.3-2.8-4.8l3.7-1.5c3.1-1.3,6.8-0.2,8.4,2.6L121.9,80.8z"/>
				<path class="st0" d="M81.1,32.5l2.1,4c0.5,1,0,2.2-1,2.6c-1.1,0.4-2.4,0-2.9-1l-2.1-4c-0.9-1.7-1.8-3.3-2.9-4.8l3.9-1.6
					C79.3,29.2,80.2,30.8,81.1,32.5z"/>
				<path class="st0" d="M78.3,27.7l-3.9,1.6c-0.8-1.2-1.6-2.3-2.5-3.3l4-1.7C76.7,25.4,77.5,26.5,78.3,27.7z"/>
				<path class="st0" d="M75.8,24.4l-4,1.7c-11-13.5-28.6-19.6-42.6-13.7S9,34.2,13.4,50.5l-4,1.7c-5.2-18.3,1.8-36.7,18-43.4
					S63.7,8.9,75.8,24.4z"/>
				<path class="st0" d="M74.3,29.3l-59.7,25c-0.5-1.3-0.9-2.6-1.2-3.8L71.9,26C72.7,27.1,73.6,28.2,74.3,29.3z"/>
				<path class="st0" d="M9.4,52.2l4-1.7c0.3,1.3,0.7,2.6,1.2,3.8L10.7,56C10.2,54.7,9.8,53.4,9.4,52.2z"/>
				<path class="st0" d="M10.7,56l3.9-1.6c0.6,1.7,1.4,3.4,2.2,5.1l2.1,4c0.5,1,0,2.2-1,2.6c-1.1,0.4-2.4,0-2.9-1L13,61
					C12.1,59.4,11.4,57.7,10.7,56z"/>
			</g>
			<g>
			</g>
		</g>
	</g>
</g>
<g id="exellent">
</g>
<g id="card">
</g>
<g id="induction">
</g>
<g id="revers_camera">
</g>
<g id="flesh_drive">
</g>
<g id="time">
</g>
<g id="sale">
</g>
<g id="tablet">
</g>
<g id="search">
</g>
<text transform="matrix(0.756 -0.2493 0.3925 0.9198 41.3743 72.0262)"><tspan x="0" y="0" class="st1 st2 st3">MY </tspan><tspan x="-12.3" y="37.1" class="st1 st2 st3">SHOP</tspan></text>
<g id="XMLID_2_">
	<g>
		<path class="st4" d="M39.3,17.7c0,1.2-0.4,2.2-1.3,2.9c-0.5,0.4-1,0.7-1.7,0.8c0,1.3-0.4,2.3-1.4,3.1c-0.8,0.6-1.7,1-2.9,1
			c-0.2,0.8-0.6,1.4-1.2,1.9c-0.6,0.5-1.2,0.7-2,0.9c-0.8,0.1-1.6,0.1-2.4-0.2c-0.2,0.3-0.4,0.5-0.7,0.8c-0.9,0.8-2.1,1.1-3.5,0.9
			c-1.4-0.2-2.6-0.8-3.7-1.8l-3.8-3.8c-0.5-0.5-1-1.1-1.5-1.8l-5.3-7.9c-0.2-0.3-0.5-0.7-1-1.2c-0.8-0.8-1.3-1.7-1.3-2.7
			c-0.1-1,0.3-1.8,1-2.4l8.9-7.4c0.8-0.6,1.7-0.9,2.8-0.7c1.1,0.2,2.1,0.7,3,1.5l8.9,1c1.5,0.2,2.7,0.8,3.8,1.8l3.5,3.4
			c1,1,1.6,2.1,1.7,3.4c0.1,1.3-0.4,2.3-1.3,3c-0.1,0.1-0.2,0.1-0.2,0.2C38.8,15.4,39.2,16.5,39.3,17.7z M37.3,19.2
			c0.5-0.4,0.7-0.9,0.6-1.6c-0.1-0.7-0.4-1.2-0.9-1.8l-7.6-7.4l1,0.1l3,3c0.6,0.6,1.2,0.9,1.9,1c0.7,0.1,1.3,0,1.8-0.4
			c0.5-0.4,0.7-0.9,0.6-1.6c-0.1-0.7-0.4-1.2-0.9-1.8L33,4.9c-0.5-0.5-1.2-0.9-2-1l-9.9-1.2c-0.8-0.1-1.6-0.6-2.4-1.3
			c-0.3-0.3-0.7-0.5-1.1-0.5c-0.4-0.1-0.8,0-1,0.2L7,9.2c-0.3,0.2-0.4,0.5-0.3,0.9c0,0.4,0.2,0.7,0.5,1l0.4,0.4
			c0.5,0.5,0.9,1,1.2,1.5l6.1,8.9c0.3,0.5,0.7,1,1.2,1.5l4.3,4.2c0.6,0.6,1.2,0.9,1.9,1c0.7,0.1,1.3,0,1.8-0.4
			c0.5-0.4,0.7-0.9,0.6-1.6s-0.4-1.3-0.9-1.8l-0.6-0.6l0.5-0.4l2.2,2.2c0.5,0.5,1,0.8,1.7,0.9s1.2,0.1,1.7-0.1
			c0.2-0.1,0.3-0.2,0.4-0.3c0.5-0.4,0.7-0.9,0.6-1.6c-0.1-0.7-0.4-1.2-0.9-1.8L27.1,21l0.5-0.4l2.1,2.1c0.6,0.6,1.3,1,2.1,1.1
			c0.8,0.2,1.4,0.1,2-0.3c0.1,0,0.1-0.1,0.2-0.1c0.5-0.4,0.8-1,0.7-1.8c-0.1-0.7-0.4-1.4-1-2l-2.3-2.2L32,17l1.6,1.6
			c0.6,0.6,1.2,0.9,1.9,1C36.2,19.8,36.8,19.6,37.3,19.2z"/>
		<path class="st5" d="M37.9,17.7c0.1,0.7-0.2,1.2-0.6,1.6c-0.5,0.4-1.1,0.5-1.8,0.4c-0.7-0.1-1.4-0.5-1.9-1L32,17l-0.5,0.4l2.3,2.2
			c0.6,0.6,1,1.3,1,2c0.1,0.7-0.2,1.3-0.7,1.8c-0.1,0.1-0.2,0.1-0.2,0.1c-0.6,0.4-1.2,0.5-2,0.3c-0.8-0.2-1.5-0.6-2.1-1.1l-2.1-2.1
			L27.1,21l2.3,2.2c0.5,0.5,0.8,1.1,0.9,1.8c0.1,0.7-0.1,1.2-0.6,1.6c-0.1,0.1-0.2,0.2-0.4,0.3c-0.5,0.2-1,0.3-1.7,0.1
			s-1.2-0.5-1.7-0.9l-2.2-2.2l-0.5,0.4l0.6,0.6c0.5,0.5,0.8,1.1,0.9,1.8s-0.1,1.2-0.6,1.6c-0.5,0.4-1.1,0.5-1.8,0.4
			c-0.7-0.1-1.4-0.5-1.9-1l-4.3-4.2c-0.5-0.5-0.9-1-1.2-1.5L8.8,13c-0.3-0.5-0.7-1-1.2-1.5l-0.4-0.4c-0.3-0.3-0.5-0.6-0.5-1
			c0-0.4,0.1-0.7,0.3-0.9l9.7-8c0.3-0.2,0.6-0.3,1-0.2c0.4,0.1,0.8,0.2,1.1,0.5c0.7,0.7,1.5,1.1,2.4,1.3L31,4c0.8,0.1,1.4,0.4,2,1
			l3.9,3.9c0.5,0.5,0.8,1.1,0.9,1.8c0.1,0.7-0.2,1.2-0.6,1.6c-0.5,0.4-1.1,0.5-1.8,0.4c-0.7-0.1-1.4-0.5-1.9-1l-3-3l-1-0.1l7.6,7.4
			C37.6,16.4,37.9,17,37.9,17.7z"/>
	</g>
	<g>
	</g>
</g>
</svg>
